<svg id="svg" version="1.1" xmlns="http://www.w3.org/2000/svg" xmlns:xlink="http://www.w3.org/1999/xlink" width="400" height="400" viewBox="0, 0, 400,400"><g id="svgg"><path id="path0" d="M176.953 0.867 C 13.097 20.914,-58.688 218.992,54.824 337.860 C 166.751 455.067,364.326 398.163,396.498 239.453 C 423.311 107.179,310.454 -15.467,176.953 0.867 M208.314 98.852 C 210.388 100.067,212.509 102.237,213.846 104.513 L 216.016 108.203 216.239 145.870 L 216.463 183.537 254.130 183.761 L 291.797 183.984 295.487 186.154 C 306.193 192.447,306.193 207.553,295.487 213.846 L 291.797 216.016 254.130 216.239 L 216.463 216.463 216.239 254.130 L 216.016 291.797 213.846 295.487 C 207.553 306.193,192.447 306.193,186.154 295.487 L 183.984 291.797 183.761 254.130 L 183.537 216.463 145.870 216.239 L 108.203 216.016 104.513 213.846 C 93.807 207.553,93.807 192.447,104.513 186.154 L 108.203 183.984 145.870 183.761 L 183.537 183.537 183.761 145.870 L 183.984 108.203 186.126 104.560 C 190.833 96.554,200.256 94.129,208.314 98.852 " stroke="none" fill="#000000" fill-rule="evenodd"></path></g></svg>