<svg id="svg" version="1.1" xmlns="http://www.w3.org/2000/svg" xmlns:xlink="http://www.w3.org/1999/xlink" width="400" height="400" viewBox="0, 0, 400,400"><g id="svgg"><path id="path0" d="M191.797 1.458 C 188.063 3.159,9.326 128.764,5.656 132.267 C -3.529 141.031,-1.647 157.262,9.315 163.835 C 17.502 168.745,25.171 168.076,34.312 161.656 L 39.844 157.772 39.851 271.269 L 39.859 384.766 41.681 388.678 C 43.665 392.939,48.018 397.234,52.067 398.926 C 55.905 400.530,344.095 400.530,347.933 398.926 C 351.982 397.234,356.335 392.939,358.319 388.678 L 360.141 384.766 360.149 271.269 L 360.156 157.772 365.688 161.656 C 381.201 172.551,398.997 165.439,399.878 147.993 C 400.479 136.076,400.174 135.765,360.329 107.813 L 327.478 84.766 327.216 50.000 C 326.903 8.544,326.406 6.529,315.252 1.462 C 310.912 -0.509,276.674 -0.720,272.087 1.196 C 262.865 5.049,259.971 10.584,259.404 25.452 L 258.984 36.450 235.938 20.129 C 205.800 -1.214,201.581 -2.999,191.797 1.458 M208.812 18.719 C 223.592 28.965,377.230 137.116,381.095 139.995 C 387.255 144.584,387.919 149.611,382.732 152.387 C 379.792 153.960,378.089 152.833,293.170 93.089 C 194.544 23.701,202.863 29.363,199.679 29.453 C 197.661 29.511,179.925 41.656,110.035 90.842 C 62.115 124.566,22.161 152.396,21.249 152.685 C 15.963 154.363,11.663 146.223,15.820 142.410 C 17.250 141.099,184.247 23.379,194.908 16.167 C 199.420 13.115,201.199 13.441,208.812 18.719 M310.997 16.078 L 312.891 18.093 313.114 46.219 C 313.295 68.973,313.146 74.235,312.333 73.763 C 311.780 73.442,302.803 67.203,292.383 59.899 L 273.438 46.618 273.438 33.516 C 273.438 13.184,272.537 14.063,293.373 14.063 L 309.103 14.062 310.997 16.078 M273.647 96.891 L 346.094 147.876 346.094 264.848 L 346.094 381.821 344.475 383.879 L 342.855 385.938 200.000 385.938 L 57.145 385.937 55.525 383.879 L 53.906 381.821 53.906 264.855 L 53.906 147.889 126.758 96.609 C 166.826 68.405,199.967 45.459,200.405 45.618 C 200.842 45.776,233.801 68.849,273.647 96.891 M121.891 128.178 C 79.227 139.347,56.300 193.318,70.691 248.706 C 83.189 296.806,117.073 336.248,166.797 360.575 C 194.243 374.003,198.992 374.994,212.109 370.030 C 288.173 341.243,336.181 277.623,333.338 209.375 C 330.232 134.810,263.103 101.669,206.244 146.629 L 200.000 151.566 193.756 146.629 C 172.847 130.096,143.423 122.541,121.891 128.178 M151.271 142.117 C 165.752 145.106,178.944 152.186,191.217 163.555 C 199.736 171.447,200.264 171.447,208.783 163.555 C 275.179 102.044,345.844 172.191,309.403 263.437 C 293.271 303.829,254.483 339.165,207.155 356.581 L 199.857 359.267 189.467 355.098 C 148.942 338.836,118.710 314.134,99.610 281.675 C 58.323 211.512,88.785 129.221,151.271 142.117 M156.714 167.692 C 144.958 171.301,137.318 188.029,140.090 204.092 C 146.962 243.914,193.750 242.050,193.750 201.953 C 193.750 178.508,175.743 161.850,156.714 167.692 M226.763 168.014 C 204.045 177.011,199.108 216.023,218.989 229.438 C 242.776 245.490,270.525 210.589,257.339 181.205 C 252.004 169.317,238.348 163.426,226.763 168.014 M169.808 182.299 C 182.367 189.902,182.881 214.731,170.563 218.796 C 166.931 219.995,162.040 217.572,158.699 212.920 C 147.778 197.714,156.330 174.141,169.808 182.299 M241.955 183.884 C 247.019 189.411,248.096 199.545,244.485 207.708 C 237.989 222.393,225.519 222.978,221.395 208.791 C 216.502 191.962,232.072 173.101,241.955 183.884 M120.843 227.720 C 109.928 231.898,103.997 245.463,107.354 258.569 C 115.006 288.439,154.170 285.561,154.166 255.130 C 154.163 236.024,136.693 221.654,120.843 227.720 M264.316 227.687 C 236.940 236.247,241.111 281.342,269.109 279.513 C 287.918 278.284,299.403 256.385,290.609 238.521 C 285.724 228.599,275.229 224.275,264.316 227.687 M193.008 233.616 C 182.717 235.779,174.121 243.811,164.931 259.849 C 161.757 265.389,157.453 272.246,155.368 275.087 C 148.010 285.107,145.422 294.284,146.909 305.078 C 149.603 324.642,164.708 331.374,188.176 323.473 C 199.706 319.591,200.263 319.588,211.570 323.355 C 238.015 332.165,253.483 323.221,253.363 299.191 C 253.314 289.379,252.065 286.291,241.936 270.943 C 239.864 267.803,236.030 261.543,233.415 257.031 C 222.461 238.131,208.903 230.274,193.008 233.616 M133.662 242.406 C 144.862 249.954,139.717 270.448,128.127 264.454 C 122.712 261.654,119.255 253.485,121.009 247.632 C 122.990 241.019,128.330 238.813,133.662 242.406 M275.999 242.486 C 285.656 251.436,272.914 272.116,263.129 263.373 C 259.665 260.278,259.045 252.198,261.895 247.289 C 265.523 241.039,272.042 238.819,275.999 242.486 M205.270 248.060 C 210.744 249.686,216.772 256.432,223.695 268.681 C 226.630 273.874,230.630 280.294,232.584 282.949 C 237.746 289.961,239.025 293.236,239.045 299.491 C 239.090 313.264,231.610 316.047,213.672 308.931 C 205.347 305.628,194.302 305.744,185.502 309.225 C 168.163 316.086,160.910 313.195,160.955 299.439 C 160.975 293.236,162.266 289.944,167.436 282.922 C 169.401 280.252,173.557 273.598,176.672 268.135 C 187.018 249.986,194.372 244.824,205.270 248.060 " stroke="none" fill="#000000" fill-rule="evenodd"></path></g></svg>