<?xml version="1.0" standalone="no"?>
<!DOCTYPE svg PUBLIC "-//W3C//DTD SVG 20010904//EN"
 "http://www.w3.org/TR/2001/REC-SVG-20010904/DTD/svg10.dtd">
<svg version="1.0" xmlns="http://www.w3.org/2000/svg"
 width="512.000000pt" height="512.000000pt" viewBox="0 0 512.000000 512.000000"
 preserveAspectRatio="xMidYMid meet">

<g transform="translate(0.000000,512.000000) scale(0.100000,-0.100000)"
fill="#000000" stroke="none">
<path d="M2449 5062 c-622 -432 -2401 -1691 -2423 -1714 -23 -25 -27 -37 -23
-66 4 -19 14 -43 23 -53 21 -24 76 -34 103 -20 11 6 546 381 1188 833 643 452
1183 830 1201 841 20 12 41 17 56 13 13 -3 558 -382 1211 -841 652 -459 1195
-840 1205 -845 34 -18 70 -11 101 19 40 40 39 81 -3 125 -24 25 -2187 1553
-2465 1742 -54 36 -79 31 -174 -34z"/>
<path d="M3615 5108 c-42 -24 -44 -35 -45 -249 l0 -206 262 -184 c144 -101
265 -185 270 -187 4 -2 8 173 8 390 -1 414 0 412 -47 436 -30 16 -420 16 -448
0z"/>
<path d="M1553 3984 l-1003 -705 0 -1610 0 -1611 29 -29 29 -29 1952 0 1952 0
29 29 29 30 -2 1611 -3 1612 -1000 704 c-549 387 -1002 704 -1005 704 -3 0
-456 -318 -1007 -706z m357 -440 c215 -38 440 -146 598 -289 l52 -47 53 48
c278 251 734 370 1052 274 468 -143 774 -710 716 -1324 -74 -768 -572 -1447
-1347 -1834 -124 -62 -330 -148 -424 -177 l-56 -17 -139 52 c-964 359 -1587
1090 -1676 1970 -54 536 175 1052 562 1264 178 97 367 122 609 80z"/>
<path d="M1540 3365 c-103 -28 -213 -90 -295 -167 -487 -455 -425 -1383 138
-2054 153 -182 370 -367 592 -502 121 -74 355 -187 488 -236 l97 -36 98 35
c146 54 443 204 569 288 350 233 617 530 784 872 262 539 256 1117 -17 1501
-68 96 -184 198 -278 244 -122 60 -188 73 -331 67 -264 -12 -488 -108 -689
-297 -52 -49 -106 -92 -119 -96 -35 -8 -60 8 -154 98 -138 131 -287 215 -472
265 -122 32 -325 41 -411 18z m670 -376 c63 -27 158 -126 199 -207 123 -243
54 -535 -151 -644 -35 -19 -59 -23 -128 -23 -78 0 -90 3 -148 34 -227 123
-313 443 -187 691 78 153 257 217 415 149z m967 -5 c98 -47 164 -137 198 -269
54 -213 -51 -468 -236 -570 -49 -27 -63 -30 -144 -30 -81 0 -95 3 -144 30 -93
52 -160 150 -187 274 -17 84 -17 139 1 223 59 281 302 443 512 342z m-1455
-828 c129 -61 203 -192 203 -356 -1 -71 -5 -95 -28 -145 -34 -73 -76 -118
-142 -153 -68 -36 -176 -37 -251 -4 -137 61 -237 239 -220 393 13 128 70 219
169 269 57 29 68 31 137 27 55 -3 91 -11 132 -31z m1957 -1 c152 -83 205 -299
116 -477 -35 -70 -116 -152 -179 -180 -75 -33 -183 -32 -251 4 -66 35 -108 80
-142 153 -23 50 -27 74 -28 145 0 183 87 316 246 374 68 25 172 17 238 -19z
m-985 -75 c133 -42 228 -140 356 -370 29 -52 79 -132 112 -177 32 -46 70 -106
83 -135 66 -146 53 -345 -30 -453 -38 -51 -105 -93 -176 -111 -83 -21 -195 -8
-311 38 -71 28 -95 33 -168 33 -73 0 -97 -5 -168 -33 -229 -90 -417 -51 -509
107 -51 86 -65 212 -38 329 19 78 43 126 115 227 31 44 81 123 110 175 92 165
152 245 233 306 105 80 257 105 391 64z"/>
<path d="M2000 2804 c-58 -49 -75 -97 -75 -209 0 -87 3 -107 26 -156 46 -98
136 -162 203 -145 41 10 93 63 113 114 12 32 18 73 18 127 0 69 -5 89 -32 145
-18 36 -40 75 -51 87 -58 66 -147 82 -202 37z"/>
<path d="M2974 2811 c-83 -51 -136 -161 -136 -283 -1 -66 4 -87 28 -135 32
-64 80 -103 126 -103 127 0 241 203 208 368 -23 111 -78 172 -156 172 -22 0
-53 -9 -70 -19z"/>
<path d="M1524 1991 c-97 -59 -69 -255 47 -320 50 -28 94 -23 132 17 78 81 40
255 -67 306 -44 21 -74 20 -112 -3z"/>
<path d="M3473 1990 c-41 -25 -79 -83 -92 -140 -26 -116 50 -218 140 -191 45
14 96 62 117 111 20 47 19 137 -2 177 -31 60 -104 80 -163 43z"/>
<path d="M2477 1906 c-84 -31 -141 -98 -257 -301 -34 -60 -85 -140 -111 -176
-73 -99 -92 -150 -92 -239 0 -87 18 -131 66 -160 46 -29 134 -26 222 6 212 77
298 77 510 0 88 -32 176 -35 222 -6 48 29 66 73 66 160 0 89 -19 140 -92 239
-26 36 -81 123 -121 193 -132 228 -193 287 -313 294 -38 3 -76 -1 -100 -10z"/>
</g>
</svg>
