<svg id="svg" version="1.1" xmlns="http://www.w3.org/2000/svg" xmlns:xlink="http://www.w3.org/1999/xlink" width="400" height="400" viewBox="0, 0, 400,400"><g id="svgg"><path id="path0" d="M177.804 1.218 C 122.870 10.130,78.116 47.650,60.861 99.258 C 33.978 179.662,79.123 293.820,170.986 377.734 L 179.539 385.547 161.706 385.938 C 144.159 386.322,143.840 386.359,141.858 388.222 C 139.305 390.623,139.128 394.973,141.463 397.942 L 143.082 400.000 200.000 400.000 L 256.918 400.000 258.537 397.942 C 260.872 394.973,260.695 390.623,258.142 388.222 C 256.160 386.359,255.841 386.322,238.294 385.938 L 220.461 385.547 229.014 377.734 C 320.988 293.719,366.034 179.700,339.090 99.113 C 322.774 50.314,281.554 13.877,229.931 2.622 C 218.261 0.078,189.593 -0.694,177.804 1.218 M217.703 14.910 C 255.542 20.173,289.258 41.431,310.877 73.655 C 350.517 132.741,335.400 222.747,271.484 308.191 C 251.419 335.015,205.365 383.594,200.000 383.594 C 198.764 383.594,179.568 366.045,168.665 354.948 C 73.252 257.834,41.421 144.957,89.279 73.438 C 117.608 31.103,168.235 8.030,217.703 14.910 M178.906 28.137 C 81.923 45.256,45.928 165.770,117.394 234.079 C 193.454 306.781,319.838 252.096,319.838 146.484 C 319.838 71.168,253.017 15.055,178.906 28.137 M217.245 41.861 C 301.509 56.006,335.419 159.002,276.018 220.373 C 209.863 288.722,94.091 241.679,94.178 146.484 C 94.238 81.101,153.067 31.088,217.245 41.861 M157.580 67.486 C 137.311 75.040,133.011 106.155,149.739 124.223 C 167.463 143.368,193.750 130.356,193.750 102.438 C 193.750 79.500,174.711 61.101,157.580 67.486 M226.763 68.014 C 202.734 77.531,199.050 120.292,221.358 130.748 C 246.092 142.342,270.001 109.420,257.339 81.205 C 252.004 69.317,238.348 63.426,226.763 68.014 M171.467 83.137 C 173.014 84.317,175.193 87.335,176.681 90.357 C 185.433 108.134,172.963 127.390,160.664 115.091 C 146.428 100.855,156.323 71.586,171.467 83.137 M241.955 83.884 C 247.019 89.411,248.096 99.545,244.485 107.708 C 237.990 122.390,225.519 122.978,221.396 108.796 C 216.518 92.016,232.102 73.133,241.955 83.884 M120.313 128.136 C 96.409 139.267,105.269 179.280,131.641 179.294 C 163.292 179.310,161.154 128.506,129.432 126.800 C 124.942 126.559,123.129 126.824,120.313 128.136 M264.316 127.687 C 245.729 133.499,239.191 159.504,252.876 173.188 C 264.694 185.006,284.750 179.546,291.554 162.658 C 299.794 142.207,283.751 121.610,264.316 127.687 M193.008 133.616 C 183.346 135.647,174.401 143.606,166.499 157.203 C 163.931 161.620,160.136 167.803,158.064 170.943 C 147.935 186.291,146.686 189.379,146.637 199.191 C 146.517 223.221,161.985 232.165,188.430 223.355 C 199.737 219.588,200.294 219.591,211.824 223.473 C 235.293 231.374,250.395 224.642,253.091 205.078 C 254.560 194.418,251.906 185.001,244.642 175.092 C 242.557 172.248,238.648 166.055,235.954 161.328 C 222.641 137.965,210.276 129.986,193.008 133.616 M133.406 142.183 C 138.301 145.168,141.442 152.788,139.899 157.936 C 136.657 168.756,125.131 167.283,121.202 155.547 C 117.949 145.834,125.619 137.436,133.406 142.183 M275.301 142.256 C 280.889 146.652,281.087 154.406,275.783 161.148 C 270.476 167.894,262.601 166.281,260.101 157.936 C 257.203 148.262,268.336 136.778,275.301 142.256 M205.270 148.060 C 210.744 149.686,216.772 156.432,223.695 168.681 C 226.630 173.874,230.630 180.294,232.584 182.949 C 237.733 189.944,239.025 193.241,239.045 199.439 C 239.090 213.327,231.712 216.087,213.672 208.931 C 205.347 205.628,194.302 205.744,185.502 209.225 C 168.163 216.086,160.910 213.195,160.955 199.439 C 160.975 193.236,162.266 189.944,167.436 182.922 C 169.401 180.252,173.557 173.598,176.672 168.135 C 187.018 149.986,194.372 144.824,205.270 148.060 " stroke="none" fill="#000000" fill-rule="evenodd"></path></g></svg>