<?xml version="1.0" standalone="no"?>
<!DOCTYPE svg PUBLIC "-//W3C//DTD SVG 20010904//EN"
 "http://www.w3.org/TR/2001/REC-SVG-20010904/DTD/svg10.dtd">
<svg version="1.0" xmlns="http://www.w3.org/2000/svg"
 width="512.000000pt" height="512.000000pt" viewBox="0 0 512.000000 512.000000"
 preserveAspectRatio="xMidYMid meet">

<g transform="translate(0.000000,512.000000) scale(0.100000,-0.100000)"
fill="#000000" stroke="none">
<path d="M2360 5109 c-605 -69 -1135 -433 -1415 -971 -91 -175 -151 -353 -187
-558 -20 -114 -17 -514 5 -665 103 -699 441 -1383 1024 -2074 104 -123 467
-493 593 -604 l75 -67 -313 0 -313 0 -24 -25 c-35 -34 -33 -78 4 -116 l29 -29
722 0 722 0 29 29 c37 38 39 82 4 116 l-24 25 -313 0 -313 0 70 62 c124 108
487 479 596 608 718 849 1072 1701 1046 2513 -6 180 -20 278 -61 431 -235 855
-1076 1425 -1956 1325z m470 -273 c557 -101 1019 -494 1204 -1025 66 -188 80
-279 80 -511 0 -176 -3 -220 -22 -310 -135 -622 -592 -1083 -1213 -1222 -92
-20 -130 -23 -319 -23 -184 0 -229 4 -313 22 -319 72 -576 213 -800 440 -119
120 -205 241 -282 398 -71 143 -104 238 -137 389 -19 86 -22 132 -22 306 0
173 4 221 22 306 89 410 323 759 660 985 213 142 425 222 692 259 91 12 348 5
450 -14z"/>
<path d="M2438 4680 c-618 -57 -1109 -498 -1239 -1113 -29 -133 -31 -378 -6
-513 52 -282 183 -531 387 -734 202 -202 432 -326 720 -387 132 -28 402 -25
539 5 328 73 596 237 797 485 152 189 243 386 290 632 26 133 24 377 -4 512
-93 435 -367 790 -757 978 -226 109 -484 157 -727 135z m-204 -374 c140 -69
239 -247 239 -431 0 -288 -225 -472 -448 -367 -147 70 -245 241 -245 426 1 96
12 153 46 221 81 162 254 226 408 151z m908 4 c107 -50 179 -160 200 -306 22
-151 -35 -319 -143 -425 -175 -173 -430 -114 -520 118 -27 72 -37 212 -19 292
36 165 158 307 294 342 50 13 138 3 188 -21z m-1395 -782 c77 -29 152 -103
183 -183 19 -48 24 -80 25 -155 0 -110 -21 -166 -86 -231 -61 -61 -113 -83
-194 -84 -154 0 -276 108 -321 287 -20 76 -14 140 19 211 32 70 70 112 131
147 65 38 156 41 243 8z m1869 -8 c124 -71 186 -218 150 -358 -31 -124 -97
-212 -195 -259 -74 -37 -174 -39 -239 -5 -105 55 -165 152 -170 274 -7 136 49
256 152 326 61 41 94 50 181 51 60 1 77 -3 121 -29z m-948 -64 c69 -19 129
-55 188 -113 49 -49 134 -173 174 -253 12 -25 51 -86 85 -136 108 -157 135
-226 135 -350 0 -151 -58 -256 -172 -313 -53 -27 -72 -31 -142 -31 -84 0 -132
11 -251 54 -91 33 -159 33 -250 0 -119 -43 -167 -54 -251 -54 -70 0 -89 4
-142 31 -123 61 -179 172 -170 337 6 114 31 179 111 294 35 51 86 131 112 178
153 271 273 367 460 369 33 1 84 -6 113 -13z"/>
<path d="M2064 4154 c-48 -16 -80 -54 -99 -118 -53 -174 54 -386 195 -386 44
0 105 58 126 122 26 81 16 187 -26 267 -54 100 -122 140 -196 115z"/>
<path d="M2993 4160 c-57 -13 -108 -64 -145 -147 -33 -72 -32 -200 2 -268 41
-83 113 -115 179 -81 45 24 97 89 121 152 18 48 21 74 18 139 -8 146 -76 226
-175 205z"/>
<path d="M1568 3353 c-37 -41 -48 -66 -48 -115 1 -100 74 -188 156 -188 79 0
130 93 105 190 -31 118 -149 181 -213 113z"/>
<path d="M3419 3357 c-40 -26 -89 -116 -89 -163 0 -80 51 -144 115 -144 81 0
154 89 155 188 0 49 -11 74 -48 115 -33 34 -85 36 -133 4z"/>
<path d="M2500 3291 c-94 -31 -159 -103 -265 -296 -21 -38 -66 -110 -100 -160
-80 -116 -90 -144 -90 -236 1 -85 15 -116 68 -150 45 -28 137 -21 240 20 148
59 266 59 414 0 103 -41 195 -48 240 -20 53 34 67 65 68 150 0 93 -10 117 -96
246 -37 55 -96 149 -130 209 -75 128 -126 189 -181 217 -45 23 -129 33 -168
20z"/>
</g>
</svg>
